# xmcd
#
# Track frame offsets:
#	150
#	15883
#	33017
#	47870
#	66514
#	81943
#	96187
#	111626
#	126177
#	143336
#	159132
#	176532
#
# Disc length: 2602 seconds
#
# Revision: 1
# Processed by: cddbd v1.5.2PL0 Copyright (c) Steve Scherf et al.
# Submitted via: audiograbber 1.83.01
#
DISCID=930a280c
DTITLE=Arne Benoni and Lynn Anderson - I'm coming home (w. Lynn Anderson)
DYEAR=2007
DGENRE=Country
TTITLE0=Mama' I'm Coming Home
TTITLE1=Slow Hand
TTITLE2=You've Already Said Goodbye
TTITLE3=The Fine Blue Line
TTITLE4=Dancin' All Around It
TTITLE5=Even It Takes Forever
TTITLE6=Let's Meet Again
TTITLE7=Maybe It's Foolish
TTITLE8=Wonderful Woman
TTITLE9=Hello
TTITLE10=Dad's Song
TTITLE11=We Can Fight Every Storm
EXTD=
EXTT0=
EXTT1=
EXTT2=
EXTT3=
EXTT4=
EXTT5=
EXTT6=
EXTT7=
EXTT8=
EXTT9=
EXTT10=
EXTT11=
PLAYORDER=
